/* XPM */
static char *exit32[] = {
/* columns rows colors chars-per-pixel */
"32 32 4 1 ",
"  c #1D2B53",
". c #AB5236",
"X c #FFA300",
"o c None",
/* pixels */
"XXXX                    XXXX    ",
"XXXX                    XXXX    ",
"XXXX                    XXXX    ",
"XXXX                    XXXX    ",
"XXXX....XXXXXXXXXXXX....XXXX    ",
"XXXX....XXXXXXXXXXXX....XXXX    ",
"XXXX....XXXXXXXXXXXX....XXXX    ",
"XXXX....XXXXXXXXXXXX....XXXX    ",
"XXXX                    XXXX    ",
"XXXX                    XXXX    ",
"XXXX                    XXXX    ",
"XXXX                    XXXX    ",
"XXXX    oooooooooooo    XXXX    ",
"XXXX    oooooooooooo    XXXX    ",
"XXXX    oooooooooooo    XXXX    ",
"XXXX    oooooooooooo    XXXX    ",
"XXXX                    XXXX    ",
"XXXX                    XXXX    ",
"XXXX                    XXXX    ",
"XXXX                    XXXX    ",
"XXXX....XXXXXXXXXXXX....XXXX    ",
"XXXX....XXXXXXXXXXXX....XXXX    ",
"XXXX....XXXXXXXXXXXX....XXXX    ",
"XXXX....XXXXXXXXXXXX....XXXX    ",
"XXXX                    XXXX    ",
"XXXX                    XXXX    ",
"XXXX                    XXXX    ",
"XXXX                    XXXX    ",
"XXXX    oooooooooooo    XXXX    ",
"XXXX    oooooooooooo    XXXX    ",
"XXXX    oooooooooooo    XXXX    ",
"XXXX    oooooooooooo    XXXX    "
};
