/* XPM */
static char *lava[] = {
/* columns rows colors chars-per-pixel */
"32 32 3 1 ",
"  c #7E2553",
". c #FF004D",
"X c #FFEC27",
/* pixels */
"........XXXX....    ....XXXX....",
"........XXXX....    ....XXXX....",
"........XXXX....    ....XXXX....",
"........XXXX....    ....XXXX....",
"....XXXXXXXXXXXXXXXXXXXXXXXX....",
"....XXXXXXXXXXXXXXXXXXXXXXXX....",
"....XXXXXXXXXXXXXXXXXXXXXXXX....",
"....XXXXXXXXXXXXXXXXXXXXXXXX....",
"....XXXX........XXXXXXXX........",
"....XXXX........XXXXXXXX........",
"....XXXX........XXXXXXXX........",
"....XXXX........XXXXXXXX........",
"    XXXX....    ....XXXX....    ",
"    XXXX....    ....XXXX....    ",
"    XXXX....    ....XXXX....    ",
"    XXXX....    ....XXXX....    ",
"XXXXXXXXXXXX....    XXXXXXXXXXXX",
"XXXXXXXXXXXX....    XXXXXXXXXXXX",
"XXXXXXXXXXXX....    XXXXXXXXXXXX",
"XXXXXXXXXXXX....    XXXXXXXXXXXX",
"XXXX........XXXXXXXXXXXX........",
"XXXX........XXXXXXXXXXXX........",
"XXXX........XXXXXXXXXXXX........",
"XXXX........XXXXXXXXXXXX........",
"XXXX............XXXX............",
"XXXX............XXXX............",
"XXXX............XXXX............",
"XXXX............XXXX............",
"XXXXXXXX........XXXX............",
"XXXXXXXX........XXXX............",
"XXXXXXXX........XXXX............",
"XXXXXXXX........XXXX............"
};
