/* XPM */
static char *player[] = {
/* columns rows colors chars-per-pixel */
"32 32 29 1 ",
"  c #7A6A9C",
". c #7669A1",
"X c #8B709B",
"o c #877D9F",
"O c #8D7E9F",
"+ c #8E7CA3",
"@ c #8175A8",
"# c #877BAB",
"$ c #8E82A2",
"% c #8E85A1",
"& c #8C81A5",
"* c #A099B1",
"= c #A8A0A9",
"- c #B0A9AC",
"; c #C1BBB1",
": c #E8B5AC",
"> c #D1C98B",
", c #D5D1AB",
"< c #CFCAB9",
"1 c #EFDEB9",
"2 c #F1EEB0",
"3 c #B2A8C5",
"4 c #DDD5DE",
"5 c #E4DFD4",
"6 c #EEECC7",
"7 c #ECE8CA",
"8 c #F3E9C2",
"9 c #F3F2C0",
"0 c #008751",
/* pixels */
"00000000000000000000000000000000",
"00000000000000000000000000000000",
"00000000000000000000000000000000",
"00000000000000000000000000000000",
"00000000000000000000000000000000",
"00000000000000000000000000000000",
"00000000000000000000000000000000",
"00000000000000000000000000000000",
"00000000000000000000000000000000",
"00000000000000000000000000000000",
"00000000000000000000000000000000",
"000000000000o;=00=;o000000000000",
"000000000000X:<##<:X000000000000",
"000000000000O174471O000000000000",
"000000000000%965569%000000000000",
"000000000000%-9999-%000000000000",
"000000000000$899998$000000000000",
"000000000000 +****+ 000000000000",
"000000000000#7*>,*7#000000000000",
"000000000000.&9229&.000000000000",
"000000000000003@@300000000000000",
"00000000000000000000000000000000",
"00000000000000000000000000000000",
"00000000000000000000000000000000",
"00000000000000000000000000000000",
"00000000000000000000000000000000",
"00000000000000000000000000000000",
"00000000000000000000000000000000",
"00000000000000000000000000000000",
"00000000000000000000000000000000",
"00000000000000000000000000000000",
"00000000000000000000000000000000"
};
