/* XPM */
static char *output[] = {
/* columns rows colors chars-per-pixel */
"32 32 6 1 ",
"  c #1D2B53",
". c #AB5236",
"X c #FF004D",
"o c #FF77A8",
"O c #FFF1E8",
"+ c #008751",
/* pixels */
"++++++++++++++++++++++++++++++++",
"++++++++++++++++++++++++++++++++",
"++++++++++++++++++++++++++++++++",
"++++++++++++++++++++++++++++++++",
"++++                        ++++",
"++++                        ++++",
"++++                        ++++",
"++++                        ++++",
"++++....XXXXXXXXooooooooXXXX++++",
"++++....XXXXXXXXooooooooXXXX++++",
"++++....XXXXXXXXooooooooXXXX++++",
"++++....XXXXXXXXooooooooXXXX++++",
"++++XXXXooooooooOOOOOOOOoooo++++",
"++++XXXXooooooooOOOOOOOOoooo++++",
"++++XXXXooooooooOOOOOOOOoooo++++",
"++++XXXXooooooooOOOOOOOOoooo++++",
"++++    ........XXXXXXXX    ++++",
"++++    ........XXXXXXXX    ++++",
"++++    ........XXXXXXXX    ++++",
"++++    ........XXXXXXXX    ++++",
"++++++++    ....XXXX    ++++++++",
"++++++++    ....XXXX    ++++++++",
"++++++++    ....XXXX    ++++++++",
"++++++++    ....XXXX    ++++++++",
"++++++++++++        ++++++++++++",
"++++++++++++        ++++++++++++",
"++++++++++++        ++++++++++++",
"++++++++++++        ++++++++++++",
"++++++++++++++++++++++++++++++++",
"++++++++++++++++++++++++++++++++",
"++++++++++++++++++++++++++++++++",
"++++++++++++++++++++++++++++++++"
};
