/* XPM */
static char *_42661946fd74667e75d30e2cde71bb0s1qw0guATdoPikxB[] = {
/* columns rows colors chars-per-pixel */
"8 8 7 1 ",
"  c None",
". c #1D2B53",
"X c #AB5236",
"o c #FF004D",
"O c #FF77A8",
"+ c #FFF1E8",
"@ c white",
/* pixels */
"        ",
" ...... ",
" XooOOo ",
" oOO++O ",
" .XXoo. ",
"  .Xo.  ",
"   ..   ",
"        "
};
